<mxfile host="Electron" agent="Mozilla/5.0 (Macintosh; Intel Mac OS X 10_15_7) AppleWebKit/537.36 (KHTML, like Gecko) draw.io/26.2.2 Chrome/134.0.6998.178 Electron/35.1.2 Safari/537.36" version="26.2.2">
  <diagram name="第 1 页" id="T9FRy5jAkJ6AT7S8Hvoi">
    <mxGraphModel dx="905" dy="781" grid="1" gridSize="10" guides="1" tooltips="1" connect="1" arrows="1" fold="1" page="1" pageScale="1" pageWidth="1169" pageHeight="827" math="0" shadow="0">
      <root>
        <mxCell id="0" />
        <mxCell id="1" parent="0" />
        <mxCell id="SfneZKJcO7ZzZr0w5fzV-15" style="rounded=0;orthogonalLoop=1;jettySize=auto;html=1;exitX=1;exitY=1;exitDx=0;exitDy=0;entryX=0;entryY=0;entryDx=0;entryDy=0;" edge="1" parent="1" source="SfneZKJcO7ZzZr0w5fzV-1" target="SfneZKJcO7ZzZr0w5fzV-5">
          <mxGeometry relative="1" as="geometry" />
        </mxCell>
        <mxCell id="SfneZKJcO7ZzZr0w5fzV-16" value="本地写" style="edgeLabel;html=1;align=center;verticalAlign=middle;resizable=0;points=[];" vertex="1" connectable="0" parent="SfneZKJcO7ZzZr0w5fzV-15">
          <mxGeometry x="-0.1018" y="-2" relative="1" as="geometry">
            <mxPoint as="offset" />
          </mxGeometry>
        </mxCell>
        <mxCell id="SfneZKJcO7ZzZr0w5fzV-1" value="&lt;font style=&quot;font-size: 25px;&quot;&gt;I&lt;/font&gt;" style="ellipse;whiteSpace=wrap;html=1;aspect=fixed;" vertex="1" parent="1">
          <mxGeometry x="240" y="120" width="80" height="80" as="geometry" />
        </mxCell>
        <mxCell id="SfneZKJcO7ZzZr0w5fzV-17" style="edgeStyle=orthogonalEdgeStyle;rounded=0;orthogonalLoop=1;jettySize=auto;html=1;exitX=0;exitY=1;exitDx=0;exitDy=0;entryX=1;entryY=1;entryDx=0;entryDy=0;" edge="1" parent="1" source="SfneZKJcO7ZzZr0w5fzV-2" target="SfneZKJcO7ZzZr0w5fzV-1">
          <mxGeometry relative="1" as="geometry" />
        </mxCell>
        <mxCell id="SfneZKJcO7ZzZr0w5fzV-18" value="其他核写" style="edgeLabel;html=1;align=center;verticalAlign=middle;resizable=0;points=[];" vertex="1" connectable="0" parent="SfneZKJcO7ZzZr0w5fzV-17">
          <mxGeometry x="-0.0019" y="1" relative="1" as="geometry">
            <mxPoint as="offset" />
          </mxGeometry>
        </mxCell>
        <mxCell id="SfneZKJcO7ZzZr0w5fzV-2" value="&lt;font style=&quot;font-size: 25px;&quot;&gt;S&lt;/font&gt;" style="ellipse;whiteSpace=wrap;html=1;aspect=fixed;" vertex="1" parent="1">
          <mxGeometry x="640" y="120" width="80" height="80" as="geometry" />
        </mxCell>
        <mxCell id="SfneZKJcO7ZzZr0w5fzV-13" style="edgeStyle=orthogonalEdgeStyle;rounded=0;orthogonalLoop=1;jettySize=auto;html=1;exitX=0;exitY=0;exitDx=0;exitDy=0;entryX=1;entryY=0;entryDx=0;entryDy=0;" edge="1" parent="1" source="SfneZKJcO7ZzZr0w5fzV-5" target="SfneZKJcO7ZzZr0w5fzV-8">
          <mxGeometry relative="1" as="geometry" />
        </mxCell>
        <mxCell id="SfneZKJcO7ZzZr0w5fzV-14" value="其他核读" style="edgeLabel;html=1;align=center;verticalAlign=middle;resizable=0;points=[];" vertex="1" connectable="0" parent="SfneZKJcO7ZzZr0w5fzV-13">
          <mxGeometry x="0.1178" y="1" relative="1" as="geometry">
            <mxPoint as="offset" />
          </mxGeometry>
        </mxCell>
        <mxCell id="SfneZKJcO7ZzZr0w5fzV-21" style="edgeStyle=orthogonalEdgeStyle;rounded=0;orthogonalLoop=1;jettySize=auto;html=1;exitX=0.5;exitY=1;exitDx=0;exitDy=0;entryX=0;entryY=0.5;entryDx=0;entryDy=0;" edge="1" parent="1" source="SfneZKJcO7ZzZr0w5fzV-5" target="SfneZKJcO7ZzZr0w5fzV-1">
          <mxGeometry relative="1" as="geometry">
            <Array as="points">
              <mxPoint x="680" y="600" />
              <mxPoint x="160" y="600" />
              <mxPoint x="160" y="160" />
            </Array>
          </mxGeometry>
        </mxCell>
        <mxCell id="SfneZKJcO7ZzZr0w5fzV-22" value="其他核写" style="edgeLabel;html=1;align=center;verticalAlign=middle;resizable=0;points=[];" vertex="1" connectable="0" parent="SfneZKJcO7ZzZr0w5fzV-21">
          <mxGeometry x="-0.518" y="2" relative="1" as="geometry">
            <mxPoint as="offset" />
          </mxGeometry>
        </mxCell>
        <mxCell id="SfneZKJcO7ZzZr0w5fzV-5" value="&lt;font style=&quot;font-size: 25px;&quot;&gt;M&lt;/font&gt;" style="ellipse;whiteSpace=wrap;html=1;aspect=fixed;" vertex="1" parent="1">
          <mxGeometry x="640" y="480" width="80" height="80" as="geometry" />
        </mxCell>
        <mxCell id="SfneZKJcO7ZzZr0w5fzV-19" style="edgeStyle=orthogonalEdgeStyle;rounded=0;orthogonalLoop=1;jettySize=auto;html=1;exitX=1;exitY=0;exitDx=0;exitDy=0;entryX=1;entryY=1;entryDx=0;entryDy=0;" edge="1" parent="1" source="SfneZKJcO7ZzZr0w5fzV-8" target="SfneZKJcO7ZzZr0w5fzV-1">
          <mxGeometry relative="1" as="geometry" />
        </mxCell>
        <mxCell id="SfneZKJcO7ZzZr0w5fzV-20" value="其他核写" style="edgeLabel;html=1;align=center;verticalAlign=middle;resizable=0;points=[];" vertex="1" connectable="0" parent="SfneZKJcO7ZzZr0w5fzV-19">
          <mxGeometry x="-0.1003" y="1" relative="1" as="geometry">
            <mxPoint as="offset" />
          </mxGeometry>
        </mxCell>
        <mxCell id="SfneZKJcO7ZzZr0w5fzV-25" style="edgeStyle=orthogonalEdgeStyle;rounded=0;orthogonalLoop=1;jettySize=auto;html=1;exitX=1;exitY=1;exitDx=0;exitDy=0;entryX=0;entryY=1;entryDx=0;entryDy=0;" edge="1" parent="1" source="SfneZKJcO7ZzZr0w5fzV-8" target="SfneZKJcO7ZzZr0w5fzV-5">
          <mxGeometry relative="1" as="geometry" />
        </mxCell>
        <mxCell id="SfneZKJcO7ZzZr0w5fzV-26" value="本地写" style="edgeLabel;html=1;align=center;verticalAlign=middle;resizable=0;points=[];" vertex="1" connectable="0" parent="SfneZKJcO7ZzZr0w5fzV-25">
          <mxGeometry x="-0.173" y="3" relative="1" as="geometry">
            <mxPoint as="offset" />
          </mxGeometry>
        </mxCell>
        <mxCell id="SfneZKJcO7ZzZr0w5fzV-8" value="&lt;font style=&quot;font-size: 25px;&quot;&gt;O&lt;/font&gt;" style="ellipse;whiteSpace=wrap;html=1;aspect=fixed;" vertex="1" parent="1">
          <mxGeometry x="240" y="480" width="80" height="80" as="geometry" />
        </mxCell>
        <mxCell id="SfneZKJcO7ZzZr0w5fzV-9" style="edgeStyle=orthogonalEdgeStyle;rounded=0;orthogonalLoop=1;jettySize=auto;html=1;exitX=0;exitY=1;exitDx=0;exitDy=0;entryX=0;entryY=0;entryDx=0;entryDy=0;" edge="1" parent="1" source="SfneZKJcO7ZzZr0w5fzV-2" target="SfneZKJcO7ZzZr0w5fzV-5">
          <mxGeometry relative="1" as="geometry">
            <mxPoint x="680" y="200" as="sourcePoint" />
            <mxPoint x="680" y="480" as="targetPoint" />
          </mxGeometry>
        </mxCell>
        <mxCell id="SfneZKJcO7ZzZr0w5fzV-10" value="本地写" style="edgeLabel;html=1;align=center;verticalAlign=middle;resizable=0;points=[];" vertex="1" connectable="0" parent="SfneZKJcO7ZzZr0w5fzV-9">
          <mxGeometry x="-0.125" relative="1" as="geometry">
            <mxPoint as="offset" />
          </mxGeometry>
        </mxCell>
        <mxCell id="SfneZKJcO7ZzZr0w5fzV-11" style="edgeStyle=orthogonalEdgeStyle;rounded=0;orthogonalLoop=1;jettySize=auto;html=1;exitX=1;exitY=0;exitDx=0;exitDy=0;entryX=0.2;entryY=0.145;entryDx=0;entryDy=0;entryPerimeter=0;" edge="1" parent="1" source="SfneZKJcO7ZzZr0w5fzV-1" target="SfneZKJcO7ZzZr0w5fzV-2">
          <mxGeometry relative="1" as="geometry" />
        </mxCell>
        <mxCell id="SfneZKJcO7ZzZr0w5fzV-12" value="本地读" style="edgeLabel;html=1;align=center;verticalAlign=middle;resizable=0;points=[];" vertex="1" connectable="0" parent="SfneZKJcO7ZzZr0w5fzV-11">
          <mxGeometry x="-0.0156" y="3" relative="1" as="geometry">
            <mxPoint x="-2" as="offset" />
          </mxGeometry>
        </mxCell>
        <mxCell id="SfneZKJcO7ZzZr0w5fzV-23" style="edgeStyle=orthogonalEdgeStyle;rounded=0;orthogonalLoop=1;jettySize=auto;html=1;exitX=0;exitY=0;exitDx=0;exitDy=0;entryX=0.5;entryY=0;entryDx=0;entryDy=0;" edge="1" parent="1" source="SfneZKJcO7ZzZr0w5fzV-1" target="SfneZKJcO7ZzZr0w5fzV-1">
          <mxGeometry relative="1" as="geometry">
            <Array as="points">
              <mxPoint x="252" y="130" />
              <mxPoint x="220" y="130" />
              <mxPoint x="220" y="100" />
              <mxPoint x="280" y="100" />
            </Array>
          </mxGeometry>
        </mxCell>
        <mxCell id="SfneZKJcO7ZzZr0w5fzV-24" value="其他核读/写" style="edgeLabel;html=1;align=center;verticalAlign=middle;resizable=0;points=[];" vertex="1" connectable="0" parent="SfneZKJcO7ZzZr0w5fzV-23">
          <mxGeometry x="0.4064" y="1" relative="1" as="geometry">
            <mxPoint x="-37" y="21" as="offset" />
          </mxGeometry>
        </mxCell>
        <mxCell id="SfneZKJcO7ZzZr0w5fzV-27" style="edgeStyle=orthogonalEdgeStyle;rounded=0;orthogonalLoop=1;jettySize=auto;html=1;exitX=1;exitY=0.5;exitDx=0;exitDy=0;entryX=0.5;entryY=0;entryDx=0;entryDy=0;" edge="1" parent="1" source="SfneZKJcO7ZzZr0w5fzV-2" target="SfneZKJcO7ZzZr0w5fzV-2">
          <mxGeometry relative="1" as="geometry">
            <Array as="points">
              <mxPoint x="740" y="160" />
              <mxPoint x="740" y="100" />
              <mxPoint x="680" y="100" />
            </Array>
          </mxGeometry>
        </mxCell>
        <mxCell id="SfneZKJcO7ZzZr0w5fzV-28" value="本地读、其他核读" style="edgeLabel;html=1;align=center;verticalAlign=middle;resizable=0;points=[];" vertex="1" connectable="0" parent="SfneZKJcO7ZzZr0w5fzV-27">
          <mxGeometry x="-0.192" relative="1" as="geometry">
            <mxPoint y="-1" as="offset" />
          </mxGeometry>
        </mxCell>
        <mxCell id="SfneZKJcO7ZzZr0w5fzV-29" style="edgeStyle=orthogonalEdgeStyle;rounded=0;orthogonalLoop=1;jettySize=auto;html=1;exitX=1;exitY=0.5;exitDx=0;exitDy=0;entryX=0.5;entryY=0;entryDx=0;entryDy=0;" edge="1" parent="1" source="SfneZKJcO7ZzZr0w5fzV-5" target="SfneZKJcO7ZzZr0w5fzV-5">
          <mxGeometry relative="1" as="geometry">
            <Array as="points">
              <mxPoint x="740" y="520" />
              <mxPoint x="740" y="460" />
              <mxPoint x="680" y="460" />
            </Array>
          </mxGeometry>
        </mxCell>
        <mxCell id="SfneZKJcO7ZzZr0w5fzV-30" value="本地读/写" style="edgeLabel;html=1;align=center;verticalAlign=middle;resizable=0;points=[];" vertex="1" connectable="0" parent="SfneZKJcO7ZzZr0w5fzV-29">
          <mxGeometry x="-0.2098" y="3" relative="1" as="geometry">
            <mxPoint x="3" y="14" as="offset" />
          </mxGeometry>
        </mxCell>
        <mxCell id="SfneZKJcO7ZzZr0w5fzV-31" style="edgeStyle=orthogonalEdgeStyle;rounded=0;orthogonalLoop=1;jettySize=auto;html=1;exitX=0;exitY=0.5;exitDx=0;exitDy=0;entryX=0.5;entryY=0;entryDx=0;entryDy=0;" edge="1" parent="1" source="SfneZKJcO7ZzZr0w5fzV-8" target="SfneZKJcO7ZzZr0w5fzV-8">
          <mxGeometry relative="1" as="geometry">
            <Array as="points">
              <mxPoint x="220" y="520" />
              <mxPoint x="220" y="460" />
              <mxPoint x="280" y="460" />
            </Array>
          </mxGeometry>
        </mxCell>
        <mxCell id="SfneZKJcO7ZzZr0w5fzV-32" value="本地读、其他核读" style="edgeLabel;html=1;align=center;verticalAlign=middle;resizable=0;points=[];" vertex="1" connectable="0" parent="SfneZKJcO7ZzZr0w5fzV-31">
          <mxGeometry x="-0.2188" y="1" relative="1" as="geometry">
            <mxPoint y="-4" as="offset" />
          </mxGeometry>
        </mxCell>
      </root>
    </mxGraphModel>
  </diagram>
</mxfile>
